<svg width="auto" height="30" viewBox="0 0 188 48" fill="none" xmlns="http://www.w3.org/2000/svg">
<path d="M2.27557 37V10.8182H12.6051C14.5909 10.8182 16.2827 11.1974 17.6804 11.956C19.0781 12.706 20.1435 13.75 20.8764 15.0881C21.6179 16.4176 21.9886 17.9517 21.9886 19.6903C21.9886 21.429 21.6136 22.9631 20.8636 24.2926C20.1136 25.6222 19.027 26.6577 17.6037 27.3991C16.1889 28.1406 14.4759 28.5114 12.4645 28.5114H5.88068V24.0753H11.5696C12.6349 24.0753 13.5128 23.892 14.2031 23.5256C14.902 23.1506 15.4219 22.6349 15.7628 21.9787C16.1122 21.3139 16.2869 20.5511 16.2869 19.6903C16.2869 18.821 16.1122 18.0625 15.7628 17.4148C15.4219 16.7585 14.902 16.2514 14.2031 15.8935C13.5043 15.527 12.6179 15.3438 11.544 15.3438H7.81108V37H2.27557ZM34.1143 37.3835C32.0945 37.3835 30.3558 36.9744 28.8984 36.1562C27.4496 35.3295 26.3331 34.1619 25.549 32.6534C24.7649 31.1364 24.3729 29.3423 24.3729 27.2713C24.3729 25.2514 24.7649 23.4787 25.549 21.9531C26.3331 20.4276 27.4368 19.2386 28.8601 18.3864C30.2919 17.5341 31.9709 17.108 33.897 17.108C35.1925 17.108 36.3984 17.3168 37.5149 17.7344C38.6399 18.1435 39.62 18.7614 40.4553 19.5881C41.299 20.4148 41.9553 21.4545 42.424 22.7074C42.8928 23.9517 43.1271 25.4091 43.1271 27.0795V28.5753H26.5462V25.2003H38.0007C38.0007 24.4162 37.8303 23.7216 37.4893 23.1165C37.1484 22.5114 36.6754 22.0384 36.0703 21.6974C35.4737 21.348 34.7791 21.1733 33.9865 21.1733C33.1598 21.1733 32.4268 21.3651 31.7876 21.7486C31.157 22.1236 30.6626 22.6307 30.3047 23.2699C29.9467 23.9006 29.7635 24.6037 29.755 25.3793V28.5881C29.755 29.5597 29.9339 30.3991 30.2919 31.1065C30.6584 31.8139 31.174 32.3594 31.8388 32.7429C32.5036 33.1264 33.2919 33.3182 34.2038 33.3182C34.8089 33.3182 35.3629 33.233 35.8658 33.0625C36.3686 32.892 36.799 32.6364 37.157 32.2955C37.5149 31.9545 37.7876 31.5369 37.9751 31.0426L43.0121 31.375C42.7564 32.5852 42.2322 33.642 41.4396 34.5455C40.6555 35.4403 39.6413 36.1392 38.397 36.642C37.1612 37.1364 35.7337 37.3835 34.1143 37.3835ZM52.1271 10.8182V37H46.6811V10.8182H52.1271ZM62.0891 37.3707C60.8363 37.3707 59.7198 37.1534 58.7397 36.7188C57.7596 36.2756 56.984 35.6236 56.413 34.7628C55.8505 33.8935 55.5692 32.8111 55.5692 31.5156C55.5692 30.4247 55.7695 29.5085 56.1701 28.767C56.5707 28.0256 57.1161 27.429 57.8065 26.9773C58.4968 26.5256 59.2809 26.1847 60.1587 25.9545C61.0451 25.7244 61.9741 25.5625 62.9457 25.4688C64.0877 25.3494 65.0082 25.2386 65.707 25.1364C66.4059 25.0256 66.913 24.8636 67.2283 24.6506C67.5437 24.4375 67.7014 24.1222 67.7014 23.7045V23.6278C67.7014 22.8182 67.4457 22.1918 66.9343 21.7486C66.4315 21.3054 65.7156 21.0838 64.7866 21.0838C63.8065 21.0838 63.0266 21.3011 62.4471 21.7358C61.8675 22.1619 61.484 22.6989 61.2965 23.3466L56.2596 22.9375C56.5153 21.7443 57.0181 20.7131 57.7681 19.8438C58.5181 18.9659 59.4854 18.2926 60.6701 17.8239C61.8633 17.3466 63.244 17.108 64.8121 17.108C65.9031 17.108 66.9471 17.2358 67.9442 17.4915C68.9499 17.7472 69.8406 18.1435 70.6161 18.6804C71.4002 19.2173 72.0181 19.9077 72.4698 20.7514C72.9215 21.5866 73.1474 22.5881 73.1474 23.7557V37H67.9826V34.277H67.8292C67.5138 34.8906 67.092 35.4318 66.5636 35.9006C66.0352 36.3608 65.4002 36.723 64.6587 36.9872C63.9173 37.2429 63.0607 37.3707 62.0891 37.3707ZM63.6488 33.6122C64.4499 33.6122 65.1573 33.4545 65.771 33.1392C66.3846 32.8153 66.8661 32.3807 67.2156 31.8352C67.565 31.2898 67.7397 30.6719 67.7397 29.9815V27.8977C67.5692 28.0085 67.3349 28.1108 67.0366 28.2045C66.7468 28.2898 66.4187 28.3707 66.0522 28.4474C65.6857 28.5156 65.3192 28.5795 64.9528 28.6392C64.5863 28.6903 64.2539 28.7372 63.9556 28.7798C63.3164 28.8736 62.7582 29.0227 62.2809 29.2273C61.8036 29.4318 61.4329 29.7088 61.1687 30.0582C60.9045 30.3991 60.7724 30.8253 60.7724 31.3366C60.7724 32.0781 61.0408 32.6449 61.5778 33.0369C62.1232 33.4205 62.8136 33.6122 63.6488 33.6122ZM86.2191 44.7727C84.4549 44.7727 82.9421 44.5298 81.6808 44.044C80.4279 43.5668 79.4308 42.9148 78.6893 42.0881C77.9478 41.2614 77.4663 40.3324 77.2447 39.3011L82.2816 38.6236C82.435 39.0156 82.6779 39.3821 83.0103 39.723C83.3427 40.0639 83.7816 40.3366 84.3271 40.5412C84.881 40.7543 85.5543 40.8608 86.3469 40.8608C87.5316 40.8608 88.5075 40.571 89.2745 39.9915C90.0501 39.4205 90.4379 38.4616 90.4379 37.1151V33.5227H90.2077C89.9691 34.0682 89.6112 34.5838 89.1339 35.0696C88.6566 35.5554 88.043 35.9517 87.293 36.2585C86.543 36.5653 85.6481 36.7188 84.6083 36.7188C83.1339 36.7188 81.7915 36.3778 80.5813 35.696C79.3796 35.0057 78.4208 33.9531 77.7049 32.5384C76.9975 31.1151 76.6438 29.3168 76.6438 27.1435C76.6438 24.919 77.006 23.0611 77.7305 21.5696C78.4549 20.0781 79.418 18.9616 80.6197 18.2202C81.8299 17.4787 83.1552 17.108 84.5955 17.108C85.695 17.108 86.6154 17.2955 87.3569 17.6705C88.0984 18.0369 88.695 18.4972 89.1467 19.0511C89.6069 19.5966 89.9606 20.1335 90.2077 20.6619H90.4123V17.3636H95.82V37.1918C95.82 38.8622 95.4109 40.2599 94.5927 41.3849C93.7745 42.5099 92.641 43.3537 91.1921 43.9162C89.7518 44.4872 88.0941 44.7727 86.2191 44.7727ZM86.3342 32.6278C87.212 32.6278 87.9535 32.4105 88.5586 31.9759C89.1722 31.5327 89.641 30.902 89.9648 30.0838C90.2972 29.2571 90.4634 28.2685 90.4634 27.1179C90.4634 25.9673 90.3015 24.9702 89.9776 24.1264C89.6538 23.2741 89.185 22.6136 88.5714 22.1449C87.9577 21.6761 87.212 21.4418 86.3342 21.4418C85.4393 21.4418 84.685 21.6847 84.0714 22.1705C83.4577 22.6477 82.9933 23.3125 82.6779 24.1648C82.3626 25.017 82.2049 26.0014 82.2049 27.1179C82.2049 28.2514 82.3626 29.2315 82.6779 30.0582C83.0018 30.8764 83.4663 31.5114 84.0714 31.9631C84.685 32.4062 85.4393 32.6278 86.3342 32.6278ZM109.026 37.3835C107.04 37.3835 105.323 36.9616 103.874 36.1179C102.434 35.2656 101.321 34.081 100.537 32.5639C99.7532 31.0384 99.3612 29.2699 99.3612 27.2585C99.3612 25.2301 99.7532 23.4574 100.537 21.9403C101.321 20.4148 102.434 19.2301 103.874 18.3864C105.323 17.5341 107.04 17.108 109.026 17.108C111.012 17.108 112.725 17.5341 114.165 18.3864C115.614 19.2301 116.73 20.4148 117.515 21.9403C118.299 23.4574 118.691 25.2301 118.691 27.2585C118.691 29.2699 118.299 31.0384 117.515 32.5639C116.73 34.081 115.614 35.2656 114.165 36.1179C112.725 36.9616 111.012 37.3835 109.026 37.3835ZM109.051 33.1648C109.955 33.1648 110.709 32.9091 111.314 32.3977C111.919 31.8778 112.375 31.1705 112.682 30.2756C112.998 29.3807 113.155 28.3622 113.155 27.2202C113.155 26.0781 112.998 25.0597 112.682 24.1648C112.375 23.2699 111.919 22.5625 111.314 22.0426C110.709 21.5227 109.955 21.2628 109.051 21.2628C108.14 21.2628 107.373 21.5227 106.75 22.0426C106.137 22.5625 105.672 23.2699 105.357 24.1648C105.05 25.0597 104.897 26.0781 104.897 27.2202C104.897 28.3622 105.05 29.3807 105.357 30.2756C105.672 31.1705 106.137 31.8778 106.75 32.3977C107.373 32.9091 108.14 33.1648 109.051 33.1648ZM122.232 37V17.3636H127.512V20.7898H127.716C128.074 19.571 128.675 18.6506 129.519 18.0284C130.363 17.3977 131.334 17.0824 132.434 17.0824C132.706 17.0824 133 17.0994 133.316 17.1335C133.631 17.1676 133.908 17.2145 134.147 17.2741V22.1065C133.891 22.0298 133.537 21.9616 133.086 21.902C132.634 21.8423 132.221 21.8125 131.846 21.8125C131.044 21.8125 130.328 21.9872 129.698 22.3366C129.076 22.6776 128.581 23.1548 128.215 23.7685C127.857 24.3821 127.678 25.0895 127.678 25.8906V37H122.232ZM142.408 25.6477V37H136.962V17.3636H142.153V20.8281H142.383C142.817 19.6861 143.546 18.7827 144.569 18.1179C145.592 17.4446 146.832 17.108 148.289 17.108C149.653 17.108 150.842 17.4062 151.856 18.0028C152.87 18.5994 153.658 19.4517 154.221 20.5597C154.783 21.6591 155.065 22.9716 155.065 24.4972V37H149.619V25.4688C149.627 24.267 149.32 23.3295 148.698 22.6562C148.076 21.9744 147.219 21.6335 146.129 21.6335C145.396 21.6335 144.748 21.7912 144.185 22.1065C143.631 22.4219 143.197 22.8821 142.881 23.4872C142.575 24.0838 142.417 24.804 142.408 25.6477ZM159.357 37V17.3636H164.803V37H159.357ZM162.093 14.8324C161.283 14.8324 160.588 14.5639 160.009 14.027C159.438 13.4815 159.152 12.8295 159.152 12.071C159.152 11.321 159.438 10.6776 160.009 10.1406C160.588 9.59517 161.283 9.32244 162.093 9.32244C162.902 9.32244 163.593 9.59517 164.164 10.1406C164.743 10.6776 165.033 11.321 165.033 12.071C165.033 12.8295 164.743 13.4815 164.164 14.027C163.593 14.5639 162.902 14.8324 162.093 14.8324ZM185.504 22.9631L180.518 23.2699C180.433 22.8437 180.249 22.4602 179.968 22.1193C179.687 21.7699 179.316 21.4929 178.856 21.2884C178.404 21.0753 177.863 20.9688 177.232 20.9688C176.388 20.9688 175.677 21.1477 175.097 21.5057C174.518 21.8551 174.228 22.3239 174.228 22.9119C174.228 23.3807 174.415 23.777 174.79 24.1009C175.165 24.4247 175.809 24.6847 176.721 24.8807L180.275 25.5966C182.184 25.9886 183.607 26.6193 184.545 27.4886C185.482 28.358 185.951 29.5 185.951 30.9148C185.951 32.2017 185.572 33.331 184.813 34.3026C184.063 35.2741 183.032 36.0327 181.719 36.5781C180.415 37.1151 178.911 37.3835 177.207 37.3835C174.607 37.3835 172.536 36.8423 170.994 35.7599C169.46 34.669 168.56 33.1861 168.296 31.3111L173.653 31.0298C173.815 31.8224 174.207 32.4276 174.829 32.8452C175.451 33.2543 176.248 33.4588 177.219 33.4588C178.174 33.4588 178.941 33.2756 179.521 32.9091C180.109 32.5341 180.407 32.0526 180.415 31.4645C180.407 30.9702 180.198 30.5653 179.789 30.25C179.38 29.9261 178.749 29.679 177.897 29.5085L174.496 28.831C172.579 28.4474 171.151 27.7827 170.214 26.8366C169.285 25.8906 168.82 24.6847 168.82 23.2188C168.82 21.9574 169.161 20.8707 169.843 19.9588C170.533 19.0469 171.501 18.3438 172.745 17.8494C173.998 17.3551 175.464 17.108 177.143 17.108C179.623 17.108 181.575 17.6321 182.998 18.6804C184.43 19.7287 185.265 21.1562 185.504 22.9631Z" fill="black"/>
</svg>
