<svg xmlns="http://www.w3.org/2000/svg" width="195" height="43" viewBox="0 0 195 43" fill="none">
<path d="M7.3571 33.185L23.1598 17.3823L26.3204 20.5428C29.8114 24.0339 29.8114 29.694 26.3204 33.185L16.8387 42.6667L7.3571 33.185Z" fill="#4D4D4D"/>
<path d="M16.8408 23.7039L7.35911 33.1855L2.61828 28.4447C-0.872763 24.9536 -0.872761 19.2935 2.61829 15.8025L5.77884 12.6419L16.8408 23.7039Z" fill="black"/>
<path d="M5.77699 12.6422L18.4192 0L23.16 4.74082C26.6511 8.23187 26.6509 13.8912 23.1598 17.3823L16.8389 23.7041L5.77699 12.6422Z" fill="#272727"/>
<path d="M50.7699 31V10.6364H58.804C60.3485 10.6364 61.6643 10.9313 62.7514 11.5213C63.8385 12.1046 64.6671 12.9167 65.2372 13.9574C65.8139 14.9915 66.1023 16.1847 66.1023 17.5369C66.1023 18.8892 65.8106 20.0824 65.2273 21.1165C64.6439 22.1506 63.7988 22.956 62.6918 23.5327C61.5914 24.1094 60.259 24.3977 58.6946 24.3977H53.5739V20.9474H57.9986C58.8272 20.9474 59.5099 20.8049 60.0469 20.5199C60.5904 20.2282 60.9948 19.8272 61.2599 19.3168C61.5317 18.7997 61.6676 18.2064 61.6676 17.5369C61.6676 16.8608 61.5317 16.2708 61.2599 15.767C60.9948 15.2566 60.5904 14.8622 60.0469 14.5838C59.5033 14.2988 58.8139 14.1562 57.9787 14.1562H55.0753V31H50.7699ZM75.5334 31.2983C73.9624 31.2983 72.6101 30.9801 71.4766 30.3438C70.3497 29.7008 69.4813 28.7926 68.8714 27.6193C68.2616 26.4394 67.9567 25.044 67.9567 23.4332C67.9567 21.8622 68.2616 20.4834 68.8714 19.2969C69.4813 18.1103 70.3397 17.1856 71.4467 16.5227C72.5604 15.8598 73.8662 15.5284 75.3643 15.5284C76.3719 15.5284 77.3099 15.6908 78.1783 16.0156C79.0533 16.3338 79.8156 16.8144 80.4652 17.4574C81.1214 18.1004 81.6319 18.9091 81.9964 19.8835C82.361 20.8513 82.5433 21.9848 82.5433 23.2841V24.4474H69.647V21.8224H78.5561C78.5561 21.2126 78.4235 20.6723 78.1584 20.2017C77.8932 19.7311 77.5253 19.3632 77.0547 19.098C76.5907 18.8262 76.0504 18.6903 75.4339 18.6903C74.791 18.6903 74.2209 18.8395 73.7237 19.1378C73.2332 19.4295 72.8487 19.8239 72.5703 20.321C72.2919 20.8116 72.1494 21.3584 72.1428 21.9616V24.4574C72.1428 25.2131 72.282 25.866 72.5604 26.4162C72.8454 26.9664 73.2464 27.3906 73.7635 27.6889C74.2805 27.9872 74.8937 28.1364 75.603 28.1364C76.0736 28.1364 76.5045 28.0701 76.8956 27.9375C77.2867 27.8049 77.6214 27.6061 77.8999 27.3409C78.1783 27.0758 78.3904 26.7509 78.5362 26.3665L82.4538 26.625C82.255 27.5663 81.8473 28.3883 81.2308 29.0909C80.621 29.7869 79.8321 30.3305 78.8643 30.7216C77.9032 31.1061 76.7929 31.2983 75.5334 31.2983ZM89.5433 10.6364V31H85.3075V10.6364H89.5433ZM97.2915 31.2884C96.3171 31.2884 95.4487 31.1193 94.6864 30.7812C93.9241 30.4366 93.3209 29.9295 92.8768 29.2599C92.4393 28.5838 92.2205 27.742 92.2205 26.7344C92.2205 25.8859 92.3763 25.1733 92.6879 24.5966C92.9994 24.0199 93.4237 23.5559 93.9606 23.2045C94.4975 22.8532 95.1074 22.5881 95.7901 22.4091C96.4795 22.2301 97.2021 22.1042 97.9577 22.0312C98.846 21.9384 99.5619 21.8523 100.105 21.7727C100.649 21.6866 101.043 21.5606 101.289 21.3949C101.534 21.2292 101.657 20.9839 101.657 20.6591V20.5994C101.657 19.9697 101.458 19.4825 101.06 19.1378C100.669 18.7931 100.112 18.6207 99.3896 18.6207C98.6272 18.6207 98.0207 18.7898 97.57 19.1278C97.1192 19.4593 96.8209 19.8769 96.6751 20.3807L92.7575 20.0625C92.9563 19.1345 93.3474 18.3324 93.9308 17.6562C94.5141 16.9735 95.2665 16.4498 96.1879 16.0852C97.1159 15.714 98.1897 15.5284 99.4094 15.5284C100.258 15.5284 101.07 15.6278 101.846 15.8267C102.628 16.0256 103.32 16.3338 103.924 16.7514C104.533 17.169 105.014 17.706 105.365 18.3622C105.717 19.0118 105.892 19.7907 105.892 20.6989V31H101.875V28.8821H101.756C101.511 29.3594 101.183 29.7803 100.772 30.1449C100.361 30.5028 99.8668 30.7846 99.2901 30.9901C98.7134 31.1889 98.0472 31.2884 97.2915 31.2884ZM98.5046 28.3651C99.1277 28.3651 99.6779 28.2424 100.155 27.9972C100.632 27.7453 101.007 27.4072 101.279 26.983C101.551 26.5587 101.686 26.0781 101.686 25.5412V23.9205C101.554 24.0066 101.372 24.0862 101.14 24.1591C100.914 24.2254 100.659 24.2884 100.374 24.348C100.089 24.401 99.8039 24.4508 99.5188 24.4972C99.2338 24.5369 98.9753 24.5734 98.7433 24.6065C98.2461 24.6795 97.8119 24.7955 97.4407 24.9545C97.0695 25.1136 96.7811 25.3291 96.5756 25.6009C96.3701 25.866 96.2674 26.1974 96.2674 26.5952C96.2674 27.1719 96.4762 27.6127 96.8938 27.9176C97.3181 28.2159 97.855 28.3651 98.5046 28.3651ZM116.059 37.0455C114.687 37.0455 113.511 36.8565 112.529 36.4787C111.555 36.1075 110.779 35.6004 110.203 34.9574C109.626 34.3144 109.252 33.5919 109.079 32.7898L112.997 32.2628C113.116 32.5677 113.305 32.8527 113.564 33.1179C113.822 33.383 114.163 33.5952 114.588 33.7543C115.019 33.92 115.542 34.0028 116.159 34.0028C117.08 34.0028 117.839 33.7775 118.436 33.3267C119.039 32.8826 119.341 32.1368 119.341 31.0895V28.2955H119.162C118.976 28.7197 118.698 29.1207 118.326 29.4986C117.955 29.8764 117.478 30.1847 116.895 30.4233C116.311 30.6619 115.615 30.7812 114.806 30.7812C113.66 30.7812 112.616 30.5161 111.674 29.9858C110.74 29.4489 109.994 28.6302 109.437 27.5298C108.887 26.4228 108.612 25.0241 108.612 23.3338C108.612 21.6037 108.894 20.1586 109.457 18.9986C110.02 17.8385 110.77 16.9702 111.704 16.3935C112.645 15.8168 113.676 15.5284 114.797 15.5284C115.652 15.5284 116.368 15.6742 116.944 15.9659C117.521 16.2509 117.985 16.6089 118.336 17.0398C118.694 17.464 118.969 17.8816 119.162 18.2926H119.321V15.7273H123.527V31.1491C123.527 32.4484 123.208 33.5355 122.572 34.4105C121.936 35.2855 121.054 35.9418 119.927 36.3793C118.807 36.8234 117.518 37.0455 116.059 37.0455ZM116.149 27.5994C116.832 27.5994 117.408 27.4304 117.879 27.0923C118.356 26.7476 118.721 26.2571 118.973 25.6207C119.231 24.9777 119.36 24.2088 119.36 23.3139C119.36 22.419 119.234 21.6435 118.983 20.9872C118.731 20.3243 118.366 19.8106 117.889 19.446C117.412 19.0814 116.832 18.8991 116.149 18.8991C115.453 18.8991 114.866 19.0881 114.389 19.4659C113.912 19.8371 113.55 20.3542 113.305 21.017C113.06 21.6799 112.937 22.4455 112.937 23.3139C112.937 24.1955 113.06 24.9579 113.305 25.6009C113.557 26.2372 113.918 26.7311 114.389 27.0824C114.866 27.4271 115.453 27.5994 116.149 27.5994ZM133.798 31.2983C132.253 31.2983 130.918 30.9702 129.791 30.3139C128.671 29.651 127.806 28.7296 127.196 27.5497C126.586 26.3632 126.281 24.9877 126.281 23.4233C126.281 21.8456 126.586 20.4669 127.196 19.2869C127.806 18.1004 128.671 17.179 129.791 16.5227C130.918 15.8598 132.253 15.5284 133.798 15.5284C135.342 15.5284 136.675 15.8598 137.795 16.5227C138.922 17.179 139.79 18.1004 140.4 19.2869C141.01 20.4669 141.315 21.8456 141.315 23.4233C141.315 24.9877 141.01 26.3632 140.4 27.5497C139.79 28.7296 138.922 29.651 137.795 30.3139C136.675 30.9702 135.342 31.2983 133.798 31.2983ZM133.818 28.017C134.52 28.017 135.107 27.8182 135.578 27.4205C136.048 27.0161 136.403 26.4659 136.642 25.7699C136.887 25.0739 137.01 24.2817 137.01 23.3935C137.01 22.5052 136.887 21.7131 136.642 21.017C136.403 20.321 136.048 19.7708 135.578 19.3665C135.107 18.9621 134.52 18.7599 133.818 18.7599C133.109 18.7599 132.512 18.9621 132.028 19.3665C131.551 19.7708 131.19 20.321 130.944 21.017C130.706 21.7131 130.586 22.5052 130.586 23.3935C130.586 24.2817 130.706 25.0739 130.944 25.7699C131.19 26.4659 131.551 27.0161 132.028 27.4205C132.512 27.8182 133.109 28.017 133.818 28.017ZM144.069 31V15.7273H148.176V18.392H148.335C148.613 17.4441 149.081 16.7282 149.737 16.2443C150.393 15.7538 151.149 15.5085 152.004 15.5085C152.216 15.5085 152.445 15.5218 152.69 15.5483C152.935 15.5748 153.151 15.6113 153.336 15.6577V19.4162C153.137 19.3565 152.862 19.3035 152.511 19.2571C152.16 19.2107 151.838 19.1875 151.547 19.1875C150.923 19.1875 150.367 19.3234 149.876 19.5952C149.392 19.8603 149.008 20.2315 148.723 20.7088C148.444 21.1861 148.305 21.7363 148.305 22.3594V31H144.069ZM159.762 22.1705V31H155.526V15.7273H159.563V18.4219H159.742C160.08 17.5336 160.647 16.831 161.442 16.3139C162.238 15.7902 163.202 15.5284 164.336 15.5284C165.397 15.5284 166.321 15.7604 167.11 16.2244C167.899 16.6884 168.512 17.3513 168.95 18.2131C169.387 19.0682 169.606 20.089 169.606 21.2756V31H165.37V22.0312C165.377 21.0966 165.138 20.3674 164.654 19.8438C164.17 19.3134 163.504 19.0483 162.656 19.0483C162.085 19.0483 161.582 19.1709 161.144 19.4162C160.713 19.6615 160.375 20.0194 160.13 20.4901C159.891 20.9541 159.769 21.5142 159.762 22.1705ZM172.944 31V15.7273H177.18V31H172.944ZM175.072 13.7585C174.442 13.7585 173.902 13.5497 173.451 13.1321C173.007 12.7079 172.785 12.2008 172.785 11.6108C172.785 11.0275 173.007 10.527 173.451 10.1094C173.902 9.68513 174.442 9.47301 175.072 9.47301C175.702 9.47301 176.239 9.68513 176.683 10.1094C177.134 10.527 177.359 11.0275 177.359 11.6108C177.359 12.2008 177.134 12.7079 176.683 13.1321C176.239 13.5497 175.702 13.7585 175.072 13.7585ZM193.281 20.0824L189.403 20.321C189.336 19.9896 189.194 19.6913 188.975 19.4261C188.756 19.1544 188.468 18.9389 188.11 18.7798C187.759 18.6141 187.338 18.5312 186.847 18.5312C186.191 18.5312 185.638 18.6705 185.187 18.9489C184.736 19.2206 184.511 19.5852 184.511 20.0426C184.511 20.4072 184.656 20.7154 184.948 20.9673C185.24 21.2192 185.74 21.4214 186.45 21.5739L189.214 22.1307C190.699 22.4356 191.806 22.9261 192.535 23.6023C193.264 24.2784 193.629 25.1667 193.629 26.267C193.629 27.268 193.334 28.1463 192.744 28.902C192.16 29.6577 191.358 30.2476 190.337 30.6719C189.323 31.0895 188.153 31.2983 186.827 31.2983C184.806 31.2983 183.195 30.8774 181.995 30.0355C180.802 29.187 180.103 28.0336 179.897 26.5753L184.063 26.3565C184.189 26.973 184.494 27.4437 184.978 27.7685C185.462 28.0866 186.082 28.2457 186.837 28.2457C187.58 28.2457 188.176 28.1032 188.627 27.8182C189.085 27.5265 189.317 27.152 189.323 26.6946C189.317 26.3101 189.154 25.9953 188.836 25.75C188.518 25.4981 188.027 25.3059 187.364 25.1733L184.719 24.6463C183.228 24.348 182.118 23.831 181.388 23.0952C180.666 22.3594 180.305 21.4214 180.305 20.2812C180.305 19.3002 180.57 18.455 181.1 17.7457C181.637 17.0365 182.389 16.4896 183.357 16.1051C184.332 15.7206 185.472 15.5284 186.778 15.5284C188.707 15.5284 190.225 15.9361 191.332 16.7514C192.445 17.5668 193.095 18.6771 193.281 20.0824Z" fill="black"/>
</svg>