<svg width="250" height="48" viewBox="0 0 250 48" fill="none" xmlns="http://www.w3.org/2000/svg">
<path d="M11.3571 35.185L27.1598 19.3823L30.3204 22.5428C33.8114 26.0339 33.8114 31.694 30.3204 35.185L20.8387 44.6667L11.3571 35.185Z" fill="#4D4D4D"/>
<path d="M20.8408 25.7039L11.3591 35.1855L6.61828 30.4447C3.12724 26.9536 3.12724 21.2935 6.61829 17.8025L9.77884 14.6419L20.8408 25.7039Z" fill="black"/>
<path d="M9.77699 14.6422L22.4192 2L27.16 6.74082C30.6511 10.2319 30.6509 15.8912 27.1598 19.3823L20.8389 25.7041L9.77699 14.6422Z" fill="#272727"/>
<path d="M60.2155 37V10.8182H70.5451C72.5309 10.8182 74.2226 11.1974 75.6203 11.956C77.0181 12.706 78.0834 13.75 78.8164 15.0881C79.5578 16.4176 79.9286 17.9517 79.9286 19.6903C79.9286 21.429 79.5536 22.9631 78.8036 24.2926C78.0536 25.6222 76.9669 26.6577 75.5436 27.3991C74.1289 28.1406 72.4158 28.5114 70.4044 28.5114H63.8206V24.0753H69.5095C70.5749 24.0753 71.4527 23.892 72.1431 23.5256C72.8419 23.1506 73.3618 22.6349 73.7027 21.9787C74.0522 21.3139 74.2269 20.5511 74.2269 19.6903C74.2269 18.821 74.0522 18.0625 73.7027 17.4148C73.3618 16.7585 72.8419 16.2514 72.1431 15.8935C71.4442 15.527 70.5578 15.3438 69.484 15.3438H65.751V37H60.2155ZM92.0543 37.3835C90.0344 37.3835 88.2958 36.9744 86.8384 36.1562C85.3895 35.3295 84.273 34.1619 83.4889 32.6534C82.7049 31.1364 82.3128 29.3423 82.3128 27.2713C82.3128 25.2514 82.7049 23.4787 83.4889 21.9531C84.273 20.4276 85.3767 19.2386 86.8 18.3864C88.2318 17.5341 89.9108 17.108 91.837 17.108C93.1324 17.108 94.3384 17.3168 95.4549 17.7344C96.5799 18.1435 97.56 18.7614 98.3952 19.5881C99.2389 20.4148 99.8952 21.4545 100.364 22.7074C100.833 23.9517 101.067 25.4091 101.067 27.0795V28.5753H84.4861V25.2003H95.9407C95.9407 24.4162 95.7702 23.7216 95.4293 23.1165C95.0884 22.5114 94.6154 22.0384 94.0103 21.6974C93.4137 21.348 92.7191 21.1733 91.9264 21.1733C91.0997 21.1733 90.3668 21.3651 89.7276 21.7486C89.0969 22.1236 88.6026 22.6307 88.2446 23.2699C87.8867 23.9006 87.7034 24.6037 87.6949 25.3793V28.5881C87.6949 29.5597 87.8739 30.3991 88.2318 31.1065C88.5983 31.8139 89.1139 32.3594 89.7787 32.7429C90.4435 33.1264 91.2318 33.3182 92.1438 33.3182C92.7489 33.3182 93.3029 33.233 93.8057 33.0625C94.3085 32.892 94.7389 32.6364 95.0969 32.2955C95.4549 31.9545 95.7276 31.5369 95.9151 31.0426L100.952 31.375C100.696 32.5852 100.172 33.642 99.3796 34.5455C98.5955 35.4403 97.5813 36.1392 96.337 36.642C95.1012 37.1364 93.6736 37.3835 92.0543 37.3835ZM110.067 10.8182V37H104.621V10.8182H110.067ZM120.029 37.3707C118.776 37.3707 117.66 37.1534 116.68 36.7188C115.7 36.2756 114.924 35.6236 114.353 34.7628C113.79 33.8935 113.509 32.8111 113.509 31.5156C113.509 30.4247 113.709 29.5085 114.11 28.767C114.511 28.0256 115.056 27.429 115.746 26.9773C116.437 26.5256 117.221 26.1847 118.099 25.9545C118.985 25.7244 119.914 25.5625 120.886 25.4688C122.028 25.3494 122.948 25.2386 123.647 25.1364C124.346 25.0256 124.853 24.8636 125.168 24.6506C125.484 24.4375 125.641 24.1222 125.641 23.7045V23.6278C125.641 22.8182 125.386 22.1918 124.874 21.7486C124.371 21.3054 123.655 21.0838 122.727 21.0838C121.746 21.0838 120.967 21.3011 120.387 21.7358C119.807 22.1619 119.424 22.6989 119.236 23.3466L114.2 22.9375C114.455 21.7443 114.958 20.7131 115.708 19.8438C116.458 18.9659 117.425 18.2926 118.61 17.8239C119.803 17.3466 121.184 17.108 122.752 17.108C123.843 17.108 124.887 17.2358 125.884 17.4915C126.89 17.7472 127.78 18.1435 128.556 18.6804C129.34 19.2173 129.958 19.9077 130.41 20.7514C130.861 21.5866 131.087 22.5881 131.087 23.7557V37H125.923V34.277H125.769C125.454 34.8906 125.032 35.4318 124.504 35.9006C123.975 36.3608 123.34 36.723 122.599 36.9872C121.857 37.2429 121.001 37.3707 120.029 37.3707ZM121.589 33.6122C122.39 33.6122 123.097 33.4545 123.711 33.1392C124.325 32.8153 124.806 32.3807 125.155 31.8352C125.505 31.2898 125.68 30.6719 125.68 29.9815V27.8977C125.509 28.0085 125.275 28.1108 124.977 28.2045C124.687 28.2898 124.359 28.3707 123.992 28.4474C123.626 28.5156 123.259 28.5795 122.893 28.6392C122.526 28.6903 122.194 28.7372 121.896 28.7798C121.256 28.8736 120.698 29.0227 120.221 29.2273C119.744 29.4318 119.373 29.7088 119.109 30.0582C118.844 30.3991 118.712 30.8253 118.712 31.3366C118.712 32.0781 118.981 32.6449 119.518 33.0369C120.063 33.4205 120.754 33.6122 121.589 33.6122ZM144.159 44.7727C142.395 44.7727 140.882 44.5298 139.621 44.044C138.368 43.5668 137.371 42.9148 136.629 42.0881C135.888 41.2614 135.406 40.3324 135.185 39.3011L140.222 38.6236C140.375 39.0156 140.618 39.3821 140.95 39.723C141.283 40.0639 141.722 40.3366 142.267 40.5412C142.821 40.7543 143.494 40.8608 144.287 40.8608C145.472 40.8608 146.447 40.571 147.214 39.9915C147.99 39.4205 148.378 38.4616 148.378 37.1151V33.5227H148.148C147.909 34.0682 147.551 34.5838 147.074 35.0696C146.597 35.5554 145.983 35.9517 145.233 36.2585C144.483 36.5653 143.588 36.7188 142.548 36.7188C141.074 36.7188 139.731 36.3778 138.521 35.696C137.32 35.0057 136.361 33.9531 135.645 32.5384C134.937 31.1151 134.584 29.3168 134.584 27.1435C134.584 24.919 134.946 23.0611 135.67 21.5696C136.395 20.0781 137.358 18.9616 138.56 18.2202C139.77 17.4787 141.095 17.108 142.535 17.108C143.635 17.108 144.555 17.2955 145.297 17.6705C146.038 18.0369 146.635 18.4972 147.087 19.0511C147.547 19.5966 147.901 20.1335 148.148 20.6619H148.352V17.3636H153.76V37.1918C153.76 38.8622 153.351 40.2599 152.533 41.3849C151.714 42.5099 150.581 43.3537 149.132 43.9162C147.692 44.4872 146.034 44.7727 144.159 44.7727ZM144.274 32.6278C145.152 32.6278 145.893 32.4105 146.499 31.9759C147.112 31.5327 147.581 30.902 147.905 30.0838C148.237 29.2571 148.403 28.2685 148.403 27.1179C148.403 25.9673 148.241 24.9702 147.918 24.1264C147.594 23.2741 147.125 22.6136 146.511 22.1449C145.898 21.6761 145.152 21.4418 144.274 21.4418C143.379 21.4418 142.625 21.6847 142.011 22.1705C141.398 22.6477 140.933 23.3125 140.618 24.1648C140.303 25.017 140.145 26.0014 140.145 27.1179C140.145 28.2514 140.303 29.2315 140.618 30.0582C140.942 30.8764 141.406 31.5114 142.011 31.9631C142.625 32.4062 143.379 32.6278 144.274 32.6278ZM166.966 37.3835C164.98 37.3835 163.263 36.9616 161.814 36.1179C160.374 35.2656 159.261 34.081 158.477 32.5639C157.693 31.0384 157.301 29.2699 157.301 27.2585C157.301 25.2301 157.693 23.4574 158.477 21.9403C159.261 20.4148 160.374 19.2301 161.814 18.3864C163.263 17.5341 164.98 17.108 166.966 17.108C168.952 17.108 170.665 17.5341 172.105 18.3864C173.554 19.2301 174.67 20.4148 175.455 21.9403C176.239 23.4574 176.631 25.2301 176.631 27.2585C176.631 29.2699 176.239 31.0384 175.455 32.5639C174.67 34.081 173.554 35.2656 172.105 36.1179C170.665 36.9616 168.952 37.3835 166.966 37.3835ZM166.991 33.1648C167.895 33.1648 168.649 32.9091 169.254 32.3977C169.859 31.8778 170.315 31.1705 170.622 30.2756C170.937 29.3807 171.095 28.3622 171.095 27.2202C171.095 26.0781 170.937 25.0597 170.622 24.1648C170.315 23.2699 169.859 22.5625 169.254 22.0426C168.649 21.5227 167.895 21.2628 166.991 21.2628C166.08 21.2628 165.312 21.5227 164.69 22.0426C164.077 22.5625 163.612 23.2699 163.297 24.1648C162.99 25.0597 162.837 26.0781 162.837 27.2202C162.837 28.3622 162.99 29.3807 163.297 30.2756C163.612 31.1705 164.077 31.8778 164.69 32.3977C165.312 32.9091 166.08 33.1648 166.991 33.1648ZM180.172 37V17.3636H185.452V20.7898H185.656C186.014 19.571 186.615 18.6506 187.459 18.0284C188.303 17.3977 189.274 17.0824 190.374 17.0824C190.646 17.0824 190.94 17.0994 191.256 17.1335C191.571 17.1676 191.848 17.2145 192.087 17.2741V22.1065C191.831 22.0298 191.477 21.9616 191.026 21.902C190.574 21.8423 190.16 21.8125 189.785 21.8125C188.984 21.8125 188.268 21.9872 187.638 22.3366C187.016 22.6776 186.521 23.1548 186.155 23.7685C185.797 24.3821 185.618 25.0895 185.618 25.8906V37H180.172ZM200.348 25.6477V37H194.902V17.3636H200.093V20.8281H200.323C200.757 19.6861 201.486 18.7827 202.509 18.1179C203.532 17.4446 204.772 17.108 206.229 17.108C207.593 17.108 208.782 17.4062 209.796 18.0028C210.81 18.5994 211.598 19.4517 212.161 20.5597C212.723 21.6591 213.005 22.9716 213.005 24.4972V37H207.559V25.4688C207.567 24.267 207.26 23.3295 206.638 22.6562C206.016 21.9744 205.159 21.6335 204.068 21.6335C203.336 21.6335 202.688 21.7912 202.125 22.1065C201.571 22.4219 201.137 22.8821 200.821 23.4872C200.515 24.0838 200.357 24.804 200.348 25.6477ZM217.297 37V17.3636H222.743V37H217.297ZM220.033 14.8324C219.223 14.8324 218.528 14.5639 217.949 14.027C217.378 13.4815 217.092 12.8295 217.092 12.071C217.092 11.321 217.378 10.6776 217.949 10.1406C218.528 9.59517 219.223 9.32244 220.033 9.32244C220.842 9.32244 221.533 9.59517 222.104 10.1406C222.683 10.6776 222.973 11.321 222.973 12.071C222.973 12.8295 222.683 13.4815 222.104 14.027C221.533 14.5639 220.842 14.8324 220.033 14.8324ZM243.443 22.9631L238.458 23.2699C238.372 22.8437 238.189 22.4602 237.908 22.1193C237.627 21.7699 237.256 21.4929 236.796 21.2884C236.344 21.0753 235.803 20.9688 235.172 20.9688C234.328 20.9688 233.617 21.1477 233.037 21.5057C232.458 21.8551 232.168 22.3239 232.168 22.9119C232.168 23.3807 232.355 23.777 232.73 24.1009C233.105 24.4247 233.749 24.6847 234.661 24.8807L238.215 25.5966C240.124 25.9886 241.547 26.6193 242.485 27.4886C243.422 28.358 243.891 29.5 243.891 30.9148C243.891 32.2017 243.512 33.331 242.753 34.3026C242.003 35.2741 240.972 36.0327 239.659 36.5781C238.355 37.1151 236.851 37.3835 235.147 37.3835C232.547 37.3835 230.476 36.8423 228.934 35.7599C227.399 34.669 226.5 33.1861 226.236 31.3111L231.593 31.0298C231.755 31.8224 232.147 32.4276 232.769 32.8452C233.391 33.2543 234.188 33.4588 235.159 33.4588C236.114 33.4588 236.881 33.2756 237.461 32.9091C238.049 32.5341 238.347 32.0526 238.355 31.4645C238.347 30.9702 238.138 30.5653 237.729 30.25C237.32 29.9261 236.689 29.679 235.837 29.5085L232.436 28.831C230.519 28.4474 229.091 27.7827 228.154 26.8366C227.225 25.8906 226.76 24.6847 226.76 23.2188C226.76 21.9574 227.101 20.8707 227.783 19.9588C228.473 19.0469 229.441 18.3438 230.685 17.8494C231.938 17.3551 233.404 17.108 235.083 17.108C237.563 17.108 239.515 17.6321 240.938 18.6804C242.37 19.7287 243.205 21.1562 243.443 22.9631Z" fill="black"/>
</svg>
